#!OML:ASF C:\Vicon Data\Big\jianyuan-13\jianyuan\Session 1\Capture.male.ASF
:FULLY-SPECIFIED
:DEGREES
195
root -6.223774 17.891763 -10.143003 -0.552616 8.734730 -0.102073
lowerback -7.001727 -1.012103 -3.800952 
upperback 2.424881 -0.972202 -0.789210 
thorax 6.523600 -0.629747 1.185446 
lowerneck -5.141654 -2.244718 3.205512 
upperneck 10.156375 -3.195795 -3.244052 
head 4.153275 -1.697628 -1.832581 
rclavicle 0.000000 0.000000 
rhumerus -38.605218 -16.762493 -79.631568 
rradius 37.801825 
rwrist 25.613161 
rhand -19.517054 -19.483060 
rfingers 0.000000 
rthumb 6.806047 -49.353651 
lclavicle 0.000000 0.000000 
lhumerus -22.992047 30.171256 81.144326 
lradius 27.072818 
lwrist -53.441841 
lhand -20.588911 0.748872 
lfingers 0.000000 
lthumb 5.771250 30.650235 
rfemur -70.798823 -22.936067 22.498399 
rtibia 106.783718 
rfoot -11.080001 -3.136915 
rtoes -32.914072 
lfemur -8.294241 -3.513846 -24.225933 
ltibia 13.993419 
lfoot -10.049370 3.061669 
ltoes -31.507991 
196
root -6.210109 17.906908 -10.089025 -0.723634 9.021664 -0.075616
lowerback -6.740320 -1.049242 -3.960080 
upperback 2.449987 -1.022936 -0.741272 
thorax 6.407235 -0.661329 1.322257 
lowerneck -5.115335 -2.271294 3.137827 
upperneck 10.154926 -3.225841 -3.240313 
head 4.147131 -1.715064 -1.819803 
rclavicle 0.000000 0.000000 
rhumerus -38.783236 -16.738648 -79.436529 
rradius 37.710496 
rwrist 25.439319 
rhand -19.760962 -19.409724 
rfingers 0.000000 
rthumb 6.570561 -49.287833 
lclavicle 0.000000 0.000000 
lhumerus -22.537032 29.679093 81.740689 
lradius 27.384544 
lwrist -52.733150 
lhand -20.624731 0.877592 
lfingers 0.000000 
lthumb 5.736627 30.779897 
rfemur -71.597894 -22.460612 22.366772 
rtibia 105.488686 
rfoot -10.990005 -3.435051 
rtoes -32.772740 
lfemur -7.480751 -3.521098 -24.322598 
ltibia 13.189902 
lfoot -9.886867 2.968722 
ltoes -31.949891 
197
root -6.201616 17.927690 -10.038340 -0.657038 9.382035 -0.592167
lowerback -6.795169 -1.088821 -3.560463 
upperback 2.410275 -1.113835 -0.565691 
thorax 6.395673 -0.689689 1.270586 
lowerneck -5.051382 -2.339385 3.033239 
upperneck 10.073680 -3.310091 -3.180891 
head 4.104006 -1.756581 -1.780980 
rclavicle 0.000000 0.000000 
rhumerus -38.958748 -16.995327 -79.112079 
rradius 37.669802 
rwrist 25.757822 
rhand -19.419873 -19.276943 
rfingers 0.000000 
rthumb 6.899841 -49.144508 
lclavicle 0.000000 0.000000 
lhumerus -22.080564 28.989664 82.281750 
lradius 27.729528 
lwrist -52.335641 
lhand -20.529716 0.825247 
lfingers 0.000000 
lthumb 5.828430 30.725044 
rfemur -72.538584 -21.775056 22.956343 
rtibia 103.905438 
rfoot -11.059217 -3.889409 
rtoes -32.720947 
lfemur -7.199801 -3.710394 -23.761331 
ltibia 12.647066 
lfoot -9.783565 2.881875 
ltoes -32.108150 
198
root -6.186313 17.935112 -9.985872 -0.765123 9.586257 -0.573526
lowerback -6.539399 -1.074787 -3.593957 
upperback 2.397335 -1.104474 -0.571638 
thorax 6.235434 -0.684455 1.288858 
lowerneck -5.184642 -2.375918 3.243787 
upperneck 10.205771 -3.355205 -3.473514 
head 4.169926 -1.786527 -1.927411 
rclavicle 0.000000 0.000000 
rhumerus -39.106287 -16.620152 -79.103071 
rradius 37.541050 
rwrist 25.493503 
rhand -19.423430 -19.388297 
rfingers 0.000000 
rthumb 6.896389 -49.255993 
lclavicle 0.000000 0.000000 
lhumerus -21.657270 27.881708 82.922740 
lradius 27.981741 
lwrist -50.925160 
lhand -20.942316 1.081033 
lfingers 0.000000 
lthumb 5.430006 30.991482 
rfemur -73.239851 -21.226581 22.784483 
rtibia 102.397486 
rfoot -10.988630 -3.907732 
rtoes -32.569979 
lfemur -6.495531 -3.631618 -23.854784 
ltibia 11.914969 
lfoot -9.560103 2.791598 
ltoes -33.055546 
199
root -6.170585 17.943259 -9.932575 -0.874397 9.732006 -0.511470
lowerback -6.336889 -1.033690 -3.614562 
upperback 2.428322 -1.056445 -0.609648 
thorax 6.149256 -0.661072 1.269357 
lowerneck -5.247749 -2.403631 3.116890 
upperneck 10.183345 -3.393839 -3.316223 
head 4.176553 -1.801294 -1.853827 
rclavicle 0.000000 0.000000 
rhumerus -39.253317 -17.036284 -78.785398 
rradius 37.351939 
rwrist 25.978773 
rhand -19.179030 -19.312502 
rfingers 0.000000 
rthumb 7.132387 -49.172328 
lclavicle 0.000000 0.000000 
lhumerus -21.357094 27.831975 83.159422 
lradius 28.325793 
lwrist -51.830948 
lhand -20.417980 0.625633 
lfingers 0.000000 
lthumb 5.936290 30.522500 
rfemur -73.735141 -20.660564 22.432180 
rtibia 100.848302 
rfoot -11.052140 -3.683118 
rtoes -32.181486 
lfemur -5.757271 -3.831946 -23.956327 
ltibia 11.181664 
lfoot -9.557079 2.836383 
ltoes -32.733446 
200
root -6.165909 17.955998 -9.879975 -0.852720 9.964108 -0.527663
lowerback -6.224297 -1.068770 -3.718759 
upperback 2.407995 -1.101699 -0.569629 
thorax 6.068915 -0.686733 1.366400 
lowerneck -5.120989 -2.430485 2.795092 
upperneck 9.949247 -3.422979 -2.976521 
head 4.075018 -1.807644 -1.672834 
rclavicle 0.000000 0.000000 
rhumerus -39.344230 -17.224436 -78.548289 
rradius 37.181154 
rwrist 26.277682 
rhand -19.206944 -19.262782 
rfingers 0.000000 
rthumb 7.105391 -49.123527 
lclavicle 0.000000 0.000000 
lhumerus -21.080851 26.593291 83.704969 
lradius 28.776641 
lwrist -50.073191 
lhand -20.473769 0.706199 
lfingers 0.000000 
lthumb 5.882422 30.604554 
rfemur -74.310314 -20.058539 22.249765 
rtibia 99.222621 
rfoot -10.659760 -3.608564 
rtoes -32.361493 
lfemur -5.210160 -3.885629 -23.946396 
ltibia 10.413607 
lfoot -9.355611 2.733567 
ltoes -33.059213 
201
root -6.160821 17.965829 -9.825410 -0.947008 10.133066 -0.650913
lowerback -6.030679 -1.073708 -3.692385 
upperback 2.422655 -1.122267 -0.501485 
thorax 5.975383 -0.695891 1.423497 
lowerneck -5.328830 -2.447545 2.796172 
upperneck 10.036683 -3.433505 -3.130449 
head 4.145277 -1.820133 -1.733159 
rclavicle 0.000000 0.000000 
rhumerus -39.354284 -16.771964 -78.636447 
rradius 37.055959 
rwrist 25.727415 
rhand -19.434240 -19.547406 
rfingers 0.000000 
rthumb 6.885998 -49.415413 
lclavicle 0.000000 0.000000 
lhumerus -20.931288 25.745508 84.136163 
lradius 29.288277 
lwrist -49.065668 
lhand -20.482026 0.703738 
lfingers 0.000000 
lthumb 5.874441 30.602295 
rfemur -74.657429 -19.487920 22.159223 
rtibia 97.579465 
rfoot -10.083602 -3.316314 
rtoes -32.743100 
lfemur -4.585808 -4.017066 -23.813780 
ltibia 9.732273 
lfoot -9.208053 2.761621 
ltoes -33.057637 
202
root -6.155745 17.967080 -9.770408 -1.052793 10.340858 -0.544812
lowerback -5.794290 -1.106514 -3.905259 
upperback 2.457783 -1.161590 -0.500238 
thorax 5.884566 -0.723784 1.543175 
lowerneck -5.303104 -2.467191 2.675989 
upperneck 9.873984 -3.447657 -3.066482 
head 4.083864 -1.825468 -1.685738 
rclavicle 0.000000 0.000000 
rhumerus -39.374763 -16.902359 -78.449786 
rradius 36.804792 
rwrist 25.897305 
rhand -19.527415 -19.478251 
rfingers 0.000000 
rthumb 6.796051 -49.349132 
lclavicle 0.000000 0.000000 
lhumerus -20.886006 25.268744 84.404782 
lradius 29.847895 
lwrist -48.482816 
lhand -20.407293 0.457019 
lfingers 0.000000 
lthumb 5.946624 30.353583 
rfemur -74.945741 -19.066253 21.789520 
rtibia 96.060536 
rfoot -9.256585 -2.785960 
rtoes -32.723889 
lfemur -3.987076 -4.217150 -23.942389 
ltibia 9.191548 
lfoot -9.133996 2.879159 
ltoes -33.542413 
203
root -6.145597 17.969088 -9.717127 -1.221105 10.514573 -0.464722
lowerback -5.501677 -1.091226 -3.873736 
upperback 2.504524 -1.154889 -0.644252 
thorax 5.761841 -0.717651 1.380544 
lowerneck -5.306674 -2.478169 2.876815 
upperneck 9.753028 -3.473472 -3.072127 
head 4.037560 -1.828147 -1.721674 
rclavicle 0.000000 0.000000 
rhumerus -39.478823 -17.405397 -78.321524 
rradius 36.624302 
rwrist 26.390311 
rhand -19.363540 -19.313263 
rfingers 0.000000 
rthumb 6.954221 -49.179039 
lclavicle 0.000000 0.000000 
lhumerus -20.923345 24.115586 84.560361 
lradius 30.467003 
lwrist -47.258712 
lhand -20.241689 0.447239 
lfingers 0.000000 
lthumb 6.106461 30.339255 
rfemur -75.103638 -18.703117 21.413135 
rtibia 94.624529 
rfoot -8.390741 -2.101764 
rtoes -33.178073 
lfemur -3.250164 -4.381959 -24.085940 
ltibia 8.529419 
lfoot -8.970335 3.043038 
ltoes -33.808034 
204
root -6.131253 17.970625 -9.660650 -1.457574 10.606228 -0.386928
lowerback -5.188549 -1.107872 -3.893428 
upperback 2.586297 -1.191525 -0.691145 
thorax 5.670118 -0.737468 1.343305 
lowerneck -5.367576 -2.461357 2.784940 
upperneck 9.685768 -3.444858 -3.010033 
head 4.028775 -1.812613 -1.682744 
rclavicle 0.000000 0.000000 
rhumerus -39.465200 -17.559572 -78.218965 
rradius 36.554930 
rwrist 26.629441 
rhand -18.976685 -19.340525 
rfingers 0.000000 
rthumb 7.327650 -49.193600 
lclavicle 0.000000 0.000000 
lhumerus -20.986180 23.322945 84.770977 
lradius 31.008398 
lwrist -46.022447 
lhand -20.348554 0.688568 
lfingers 0.000000 
lthumb 6.003291 30.583562 
rfemur -75.061136 -18.334117 21.035589 
rtibia 93.311678 
rfoot -7.787295 -1.437715 
rtoes -33.236459 
lfemur -2.415664 -4.457655 -24.232091 
ltibia 7.889372 
lfoot -8.902176 3.064801 
ltoes -32.929316 
